<?xml version="1.0" standalone="no"?>
<!DOCTYPE svg PUBLIC "-//W3C//DTD SVG 20010904//EN"
 "http://www.w3.org/TR/2001/REC-SVG-20010904/DTD/svg10.dtd">
<svg version="1.0" xmlns="http://www.w3.org/2000/svg"
 width="1029.000000pt" height="1029.000000pt" viewBox="0 0 1029.000000 1029.000000"
 preserveAspectRatio="xMidYMid meet">
<metadata>
Created by potrace 1.11, written by Peter Selinger 2001-2013
</metadata>
<g transform="translate(0.000000,1029.000000) scale(0.100000,-0.100000)"
fill="#000000" stroke="none">
<path d="M0 5145 l0 -5145 5145 0 5145 0 0 5145 0 5145 -5145 0 -5145 0 0
-5145z m5815 2350 c78 -16 232 -71 256 -92 8 -7 23 -13 31 -13 9 0 18 -3 20
-7 2 -5 30 -25 63 -47 119 -76 328 -320 350 -408 6 -23 13 -28 53 -33 364 -49
656 -138 957 -293 85 -44 264 -149 275 -161 3 -3 34 -26 70 -50 36 -25 67 -48
70 -51 3 -3 25 -21 50 -40 25 -19 56 -45 70 -59 21 -20 22 -22 4 -13 -11 6
-26 18 -34 26 -7 9 -17 16 -22 16 -5 0 -33 15 -61 34 -98 64 -314 167 -468
221 -57 20 -115 40 -129 45 -106 37 -324 83 -500 105 -235 29 -360 16 -492
-50 -128 -65 -210 -144 -281 -275 -74 -135 -89 -287 -49 -477 73 -341 31 -724
-114 -1030 -19 -39 -34 -76 -34 -82 0 -6 -4 -11 -8 -11 -5 0 -17 -18 -27 -40
-10 -22 -21 -40 -24 -40 -4 0 -17 -20 -31 -45 -14 -25 -28 -45 -32 -45 -3 0
-9 -8 -12 -17 -3 -10 -22 -36 -42 -58 -19 -22 -44 -53 -55 -70 -10 -16 -19
-27 -19 -23 0 4 -13 -5 -29 -20 -15 -15 -26 -30 -24 -34 4 -8 -12 -12 -30 -9
-5 1 -6 -2 -3 -7 8 -14 -60 -75 -75 -67 -7 5 -10 4 -6 -2 8 -13 -70 -78 -138
-118 -27 -15 -52 -32 -55 -36 -3 -4 -54 -32 -115 -62 -101 -50 -188 -85 -335
-132 -30 -10 -83 -31 -118 -47 -34 -15 -66 -28 -70 -28 -13 0 -187 -102 -190
-111 -2 -5 -8 -9 -14 -9 -30 0 -238 -181 -333 -290 -48 -56 -151 -204 -193
-277 -43 -77 -122 -257 -122 -279 0 -74 -114 175 -190 417 -31 98 -84 328 -95
414 -25 200 -35 495 -17 522 5 8 19 9 47 3 25 -6 44 -5 51 1 8 7 14 7 18 0 4
-5 15 -8 26 -6 11 2 25 -4 32 -14 7 -10 30 -21 51 -25 22 -4 37 -13 37 -21 0
-18 5 -18 31 -5 27 15 24 30 -8 30 -36 0 -26 6 22 13 24 4 32 3 20 -2 -16 -6
-12 -9 22 -14 23 -4 48 -5 56 -2 14 6 24 -37 43 -177 6 -44 8 -47 33 -42 14 2
56 5 94 7 37 2 66 7 65 13 -2 5 -13 8 -25 6 -12 -1 -24 2 -28 8 -4 6 8 10 29
10 22 0 36 5 37 13 0 9 2 9 6 0 2 -8 22 -13 44 -13 42 0 53 16 17 23 -14 3 -8
5 15 6 21 0 45 8 53 16 10 9 34 15 65 15 40 0 54 5 73 25 13 14 28 25 35 25 6
0 11 8 11 18 0 13 2 14 9 3 7 -11 11 -9 20 8 14 26 41 28 41 2 0 -10 6 -23 13
-29 9 -8 12 -4 14 16 3 49 15 102 23 107 4 3 11 -7 15 -23 l7 -27 13 25 c8 14
14 33 15 43 0 9 7 17 15 17 8 0 15 5 15 11 0 6 6 17 14 25 13 12 17 12 29 -1
13 -13 16 -13 21 1 3 9 6 26 6 39 0 13 3 31 6 39 6 15 7 15 18 1 10 -14 15 -8
35 37 12 29 24 64 26 78 2 15 9 25 18 24 8 -1 21 9 28 22 7 13 21 24 32 24 11
0 17 5 14 13 -3 6 -8 21 -12 32 -7 20 -7 20 10 0 14 -17 17 -18 25 -5 16 25
11 52 -10 57 -22 6 -23 24 -2 31 7 2 12 -3 12 -11 0 -8 6 -17 14 -20 11 -4 12
2 6 29 -6 24 -5 36 3 39 38 11 41 13 21 14 -28 1 -29 47 -3 119 12 34 19 79
19 127 0 60 3 75 15 75 16 0 21 25 6 34 -5 3 -12 21 -15 40 -4 18 -15 41 -26
51 -25 23 -29 115 -5 115 25 0 17 23 -17 52 -31 26 -31 28 -10 28 12 0 22 4
22 9 0 5 -8 8 -17 7 -9 0 -23 10 -29 24 -7 13 -19 29 -26 35 -24 19 -40 57
-30 67 7 7 2 18 -14 35 -28 28 -31 53 -7 53 10 0 1 12 -25 32 -33 26 -39 35
-31 49 7 15 6 17 -5 13 -8 -3 -23 -1 -33 6 -16 9 -15 10 7 5 l25 -6 -24 21
c-21 18 -22 23 -10 31 7 5 18 9 22 9 5 0 5 5 2 10 -4 6 -12 4 -21 -5 -9 -8
-22 -15 -31 -15 -13 0 -13 -3 -3 -15 10 -12 10 -15 -4 -15 -10 0 -16 8 -16 23
0 19 9 27 41 37 35 12 42 12 51 -1 8 -11 9 -11 4 3 -3 12 2 18 17 21 12 3 4 3
-18 1 -46 -3 -134 -40 -153 -63 -8 -9 -11 -10 -7 -3 3 6 1 12 -4 12 -6 0 -11
-4 -11 -10 0 -5 -6 -10 -14 -10 -7 0 -19 -7 -26 -15 -7 -8 -18 -14 -24 -13 -6
1 -49 -23 -96 -53 -47 -31 -94 -59 -104 -63 -17 -6 -17 -5 -5 11 8 10 20 24
27 31 7 8 25 30 40 50 25 34 58 73 105 124 10 11 15 23 11 26 -3 4 -9 1 -11
-6 -3 -6 -9 -9 -14 -6 -6 3 -2 12 8 19 12 9 20 10 24 3 7 -11 49 20 49 37 0 6
12 18 27 27 l27 16 -24 0 c-14 0 -40 2 -58 4 -18 3 -35 2 -38 -3 -3 -5 -14 -9
-25 -9 -14 0 -18 4 -12 13 10 15 11 57 2 57 -4 0 -9 -7 -13 -15 -7 -20 -40
-19 -57 2 -11 13 -11 17 -1 20 22 8 13 31 -12 31 -16 0 -23 -5 -20 -13 9 -22
-14 -27 -25 -6 -7 12 -7 21 -1 23 6 2 5 9 -1 18 -8 11 -12 12 -16 3 -2 -7 -12
-13 -21 -13 -10 0 -13 3 -7 8 6 4 11 14 13 22 3 18 175 181 221 210 6 3 11 27
12 53 3 52 19 65 19 15 0 -17 3 -28 7 -25 3 4 5 28 4 54 -1 49 13 51 22 3 4
-23 4 -23 6 5 2 26 3 27 11 10 8 -19 9 -19 9 2 1 12 6 25 12 29 8 4 7 9 -2 16
-15 10 -9 9 36 -8 17 -6 18 -5 7 7 -10 11 -8 16 10 26 22 12 21 12 -17 13 -35
1 -38 2 -22 14 9 7 17 18 17 24 0 6 9 17 20 25 11 8 23 29 26 48 10 48 22 69
42 69 9 0 23 9 30 20 10 17 9 25 -4 45 -9 14 -14 29 -10 33 4 3 11 0 16 -7 6
-10 12 -3 21 27 11 37 16 42 41 42 21 0 28 5 28 19 0 11 -4 23 -10 26 -5 3
-10 15 -10 26 0 11 4 18 9 15 5 -3 11 1 15 9 3 8 15 15 26 15 15 0 20 7 20 29
0 32 15 50 23 29 4 -9 6 -7 6 3 1 9 -5 22 -13 29 -17 13 -10 40 10 40 8 0 14
9 14 19 0 25 16 36 23 17 4 -9 14 -12 25 -9 16 4 21 17 27 68 5 52 10 64 31
75 27 15 32 30 9 30 -8 0 -15 5 -15 10 0 6 5 10 11 10 7 0 18 8 25 18 13 16
14 16 7 -3 -3 -11 -3 -17 2 -13 4 4 8 20 9 35 1 19 7 29 21 31 33 6 42 22 12
22 -15 0 -27 -5 -27 -11 0 -6 -7 -8 -16 -5 -12 4 -15 2 -10 -9 4 -12 2 -13
-14 -3 -22 14 -21 16 6 21 10 2 35 13 54 25 19 12 40 22 45 22 6 0 22 6 37 14
23 12 149 44 238 60 46 9 264 -4 335 -19z m-875 -224 c0 -5 -7 -12 -16 -15
-14 -5 -15 -4 -4 9 14 17 20 19 20 6z m-30 -35 c0 -2 -9 -6 -20 -9 -11 -3 -18
-1 -14 4 5 9 34 13 34 5z m126 -83 c-2 -3 -11 1 -19 8 -12 12 -12 15 2 26 13
10 17 8 19 -9 2 -11 1 -22 -2 -25z m-366 -233 c0 -5 -5 -10 -11 -10 -5 0 -7 5
-4 10 3 6 8 10 11 10 2 0 4 -4 4 -10z m-60 -154 c0 -3 -4 -8 -10 -11 -5 -3
-10 -1 -10 4 0 6 5 11 10 11 6 0 10 -2 10 -4z m-30 -160 c0 -3 -4 -8 -10 -11
-5 -3 -10 -1 -10 4 0 6 5 11 10 11 6 0 10 -2 10 -4z m0 -56 c0 -5 -2 -10 -4
-10 -3 0 -8 5 -11 10 -3 6 -1 10 4 10 6 0 11 -4 11 -10z m47 -12 c-3 -8 -6 -5
-6 6 -1 11 2 17 5 13 3 -3 4 -12 1 -19z m-73 -68 c-1 -40 -14 -52 -14 -13 0
23 6 43 14 43 1 0 1 -14 0 -30z m83 -16 c-3 -3 -12 -4 -19 -1 -8 3 -5 6 6 6
11 1 17 -2 13 -5z m-321 -394 c17 0 19 -16 2 -26 -6 -4 -8 -3 -5 3 4 6 0 14
-9 17 -12 4 -15 2 -10 -9 4 -10 -1 -15 -14 -15 -11 0 -20 -6 -20 -14 0 -8 -7
-17 -16 -20 -17 -7 -13 2 24 53 14 19 28 29 30 23 2 -7 10 -12 18 -12z m-106
-95 c-7 -9 -15 -13 -17 -11 -6 6 20 36 26 30 2 -2 -2 -10 -9 -19z m380 -23
c-8 -2 -21 -11 -27 -20 -17 -21 -27 -9 -12 16 8 13 19 18 33 14 15 -4 16 -7 6
-10z m100 -162 c0 -5 -7 -7 -15 -4 -8 4 -15 8 -15 10 0 2 7 4 15 4 8 0 15 -4
15 -10z m-1183 -1382 c-3 -8 -6 -5 -6 6 -1 11 2 17 5 13 3 -3 4 -12 1 -19z
m-10 -130 c-3 -7 -5 -2 -5 12 0 14 2 19 5 13 2 -7 2 -19 0 -25z m500 -264 c-3
-3 -12 -4 -19 -1 -8 3 -5 6 6 6 11 1 17 -2 13 -5z"/>
<path d="M5190 7422 c0 -5 6 -9 13 -9 6 0 21 -4 32 -8 14 -6 17 -5 10 2 -14
15 -55 26 -55 15z"/>
<path d="M5080 7204 c0 -8 5 -12 10 -9 6 4 8 11 5 16 -9 14 -15 11 -15 -7z"/>
<path d="M4756 6665 c-11 -8 -17 -18 -13 -21 10 -11 37 4 37 21 0 18 0 18 -24
0z"/>
<path d="M4363 6103 c9 -2 23 -2 30 0 6 3 -1 5 -18 5 -16 0 -22 -2 -12 -5z"/>
<path d="M4699 6020 c-13 -10 -20 -19 -16 -20 4 0 17 9 29 20 28 26 17 26 -13
0z"/>
<path d="M4652 5995 c-11 -12 -10 -15 3 -15 8 0 15 7 15 15 0 18 -2 18 -18 0z"/>
<path d="M4968 5883 c6 -2 18 -2 25 0 6 3 1 5 -13 5 -14 0 -19 -2 -12 -5z"/>
<path d="M4872 5634 c-8 -9 -11 -23 -7 -32 6 -15 8 -13 16 7 12 31 8 43 -9 25z"/>
<path d="M4946 5471 c-4 -7 -5 -15 -2 -18 9 -9 19 4 14 18 -4 11 -6 11 -12 0z"/>
<path d="M4802 4420 c0 -14 2 -19 5 -12 2 6 2 18 0 25 -3 6 -5 1 -5 -13z"/>
<path d="M4267 4023 c-12 -12 -7 -22 8 -17 8 4 15 10 15 15 0 11 -14 12 -23 2z"/>
</g>
</svg>
